<?xml version="1.0" encoding="UTF-8"?>
<svg width="139px" height="35px" viewBox="0 0 139 35" version="1.1" xmlns="http://www.w3.org/2000/svg" xmlns:xlink="http://www.w3.org/1999/xlink">
    <!-- Generator: Sketch 50.2 (55047) - http://www.bohemiancoding.com/sketch -->
    <title>Page 1</title>
    <desc>Created with Sketch.</desc>
    <defs>
        <polygon id="path-1" points="21.7732501 33.6936447 21.7732501 0.343958106 0.00842346382 0.343958106 0.00842346382 33.6936447 21.7732501 33.6936447"></polygon>
        <polygon id="path-3" points="0.495331458 0.343958106 23.2058779 0.343958106 23.2058779 33.5328657 0.495331458 33.5328657 0.495331458 0.343958106"></polygon>
        <polygon id="path-5" points="0 0.385022492 0 33.6938553 28.2571411 33.6938553 28.2571411 0.385022492"></polygon>
        <polygon id="path-7" points="24.5211243 33.6938553 0.0748284369 33.6938553 0.0748284369 0.385022492 24.5211243 0.385022492"></polygon>
    </defs>
    <g id="Symbols" stroke="none" stroke-width="1" fill="none" fill-rule="evenodd">
        <g id="Nav-/-Header" transform="translate(-48.000000, -28.000000)">
            <g id="Page-1" transform="translate(48.000000, 28.000000)">
                <path d="M90.6674269,8.61271097 C90.1697406,5.5676288 88.136176,2.99917429 85.3199313,1.67528656 C82.5156198,0.354908609 78.2463275,0.430017828 75.7656174,1.70266282 C73.2870132,2.97320195 71.3390872,6.05689166 70.9544157,6.5840601 C70.7915621,6.80587798 70.8533341,7.18984754 71.107442,7.4088576 C71.5089604,7.75632548 73.9945842,9.94993585 74.7779663,10.5079903 C75.1808887,10.7936861 75.520635,10.7866666 75.9053066,10.3893599 C76.4022909,9.90079898 77.3394013,8.8211917 77.878503,8.36281488 C78.6611831,7.69525537 79.6509401,7.48888051 80.2777862,7.48607268 C81.7413631,7.47624531 82.9866318,8.14450677 83.4478164,9.41434394 C83.8802209,10.5964367 83.5608313,12.1372286 82.4854357,12.8770895 C81.6199248,13.4751555 80.0524586,13.7124164 79.0542781,13.8921169 C77.6686183,14.079539 77.6286069,14.6481228 77.5773641,15.1598482 C77.4875138,16.026763 77.4510122,17.7816513 77.5247175,18.870384 C77.57947,19.6818444 78.5748426,19.9563089 79.5154628,20.0988058 C80.4638044,20.2406008 81.2043673,20.2335813 82.024953,20.5375279 C83.4092089,21.0457436 84.1581952,22.7318402 83.9293578,24.1308372 C83.6956067,25.5747593 82.3899698,26.5280146 80.9783376,26.7119269 C79.4733454,26.9098783 78.1592851,25.9159096 77.2130493,24.8531492 C76.7476529,24.3308945 75.9024987,23.3474551 75.5515211,22.9501483 C75.2988172,22.6651545 74.8958948,22.7809771 74.5463211,22.9845442 C74.0198546,23.2863849 70.6694218,25.610559 70.1991118,25.9474975 C69.9457059,26.2009034 69.8951651,26.4023646 70.0622305,26.7056093 C70.7178568,27.8161026 71.5194897,29.0017051 72.4334356,30.0967554 C73.4105574,31.2627032 74.7021551,32.178053 76.0821993,32.8287655 C80.4841611,34.9037455 86.0906782,33.5826655 89.0648629,29.7752599 C92.1071372,25.8822157 91.8024886,20.3030748 88.2337478,16.8712153 C90.3648842,14.6516326 91.1573917,11.6142719 90.6674269,8.61271097" id="Fill-1" fill="#FFFFFF"></path>
                <g id="Group-5" transform="translate(117.226538, 0.358067)">
                    <mask id="mask-2" fill="white">
                        <use xlink:href="#path-1"></use>
                    </mask>
                    <g id="Clip-4"></g>
                    <path d="M14.3928918,23.6458563 C14.3928918,25.5397317 12.8247237,27.0826295 10.8908368,27.0826295 C8.96326746,27.0826295 7.39229145,25.5397317 7.39229145,23.6458563 L7.39229145,10.6786357 C7.39229145,8.78405826 8.96326746,7.24186243 10.8908368,7.24186243 C12.8247237,7.24186243 14.3928918,8.78405826 14.3928918,10.6786357 L14.3928918,23.6458563 Z M10.8908368,0.343747519 C4.8905227,0.343747519 0.00842346382,5.13740039 0.00842346382,11.0289114 L0.00842346382,23.0098847 C0.00842346382,28.9013957 4.8905227,33.6936447 10.8908368,33.6936447 C16.8932567,33.6936447 21.773952,28.9013957 21.773952,23.0098847 L21.773952,11.0289114 C21.773952,5.13740039 16.8932567,0.343747519 10.8908368,0.343747519 Z" id="Fill-3" fill="#FFFFFF" mask="url(#mask-2)"></path>
                </g>
                <g id="Group-8" transform="translate(91.956147, 0.358067)">
                    <mask id="mask-4" fill="white">
                        <use xlink:href="#path-3"></use>
                    </mask>
                    <g id="Clip-7"></g>
                    <path d="M9.04181626,12.4982442 C9.1337724,11.700823 9.75149308,7.63228998 9.83853554,6.8369746 L19.7417212,6.8369746 C20.0842754,6.8369746 20.3819044,6.61656063 20.404367,6.30348856 C20.4745625,5.29969246 20.404367,2.22863794 20.404367,0.963714456 C20.404367,0.540435399 20.231686,0.363542659 19.7417212,0.363542659 C16.3344301,0.363542659 8.20859529,0.34388791 4.80200614,0.34388791 C3.97580473,0.34388791 3.88595445,0.898432612 3.79680612,1.50211419 C3.49356142,3.55322762 1.29503737,17.2996186 1.25081418,17.6976273 C1.20729295,18.0991457 1.29503737,18.2584896 1.69725776,18.5238287 C2.77967286,19.0348522 5.13262709,20.0007427 5.64014078,20.2148391 C6.20381091,20.451398 6.50775756,20.7279684 7.06230226,20.1355181 C8.49007938,18.6059575 9.0944629,17.9236569 10.2337364,17.6407689 C11.8299828,17.2497798 13.5869769,17.6379611 14.7276543,18.7744267 C15.895708,19.9424804 16.0396088,21.9290139 15.6465138,23.3989084 C15.3888962,24.3746263 14.811187,25.7876623 12.581075,26.342909 C11.3147476,26.6005266 8.99618916,26.0782718 7.3711626,24.8828419 C6.78292404,24.4518414 5.97707934,23.8271011 5.46324804,23.3624067 C4.99363994,22.9384257 4.6721444,23.0998754 4.01090249,23.7891955 C3.09414885,24.7473645 1.73656726,26.3520344 0.845785963,27.2393059 C0.388813051,27.6927691 0.383899363,28.007947 0.800860822,28.4663238 C1.79763737,29.5655858 2.86531141,30.4458378 4.22078713,31.3864579 C6.88962125,33.2424278 10.6401685,33.8868228 13.915492,33.3505289 C16.759113,32.8837286 19.2819404,31.32258 21.001731,29.2033769 C22.5867461,27.2526431 23.1911296,24.9102182 23.2051687,22.5046173 C23.2121883,21.0670128 23.1834081,19.7747131 22.3424656,17.7011371 C19.8750927,11.6327333 12.1009375,10.4358995 9.04181626,12.4982442" id="Fill-6" fill="#FFFFFF" mask="url(#mask-4)"></path>
                </g>
                <path d="M72.8101048,18.6367733 L72.8101048,14.839195 C72.8101048,14.3485283 72.5742478,13.9638568 72.1818548,13.9638568 L68.3274181,13.9638568 L68.3274181,9.65455305 C68.3274181,9.29655584 68.0831377,8.97786813 67.7265444,8.86766114 C67.3685471,8.76026198 66.9817698,8.88591198 66.7662695,9.18073321 L61.3022493,16.2557409 C61.0937686,16.5407347 61.0937686,16.9197906 61.3022493,17.2047845 L66.7662695,24.3106781 C66.9284212,24.5360058 67.1909525,24.6609538 67.4682248,24.6609538 C67.5517575,24.6609538 67.6430117,24.6490206 67.7265444,24.6223463 C68.0831377,24.5142452 68.3274181,24.1962594 68.3274181,23.8361563 L68.3274181,19.616001 L71.8659749,19.616001 C72.5742478,19.616001 72.8101048,19.1709613 72.8101048,18.6367733" id="Fill-9" fill="#FFFFFF"></path>
                <g id="Group-13" transform="translate(0.000000, 0.358067)">
                    <mask id="mask-6" fill="white">
                        <use xlink:href="#path-5"></use>
                    </mask>
                    <g id="Clip-12"></g>
                    <path d="M27.6745182,0.385022492 L22.7159059,0.385022492 C22.4737313,0.385022492 22.2561251,0.534538975 22.1704866,0.761270542 L14.1288864,21.962427 L6.08658437,0.761270542 C6.00094582,0.534538975 5.78404162,0.385022492 5.54186704,0.385022492 L0.582552718,0.385022492 C0.261057183,0.385022492 -7.01955318e-05,0.64614987 -7.01955318e-05,0.967645406 L-7.01955318e-05,33.1108814 C-7.01955318e-05,33.4330789 0.261057183,33.6942062 0.582552718,33.6942062 L4.62370948,33.6942062 C4.94590698,33.6942062 5.2063324,33.4330789 5.2063324,33.1108814 L5.2063324,12.7576869 L12.1627096,30.3858908 C12.250454,30.6084107 12.4659543,30.7551193 12.7053211,30.7551193 L15.5517499,30.7551193 C15.7911166,30.7551193 16.0066169,30.6084107 16.0943613,30.3858908 L23.0507385,12.7576869 L23.0507385,33.1108814 C23.0507385,33.4330789 23.3118659,33.6942062 23.6333615,33.6942062 L27.6745182,33.6942062 C27.9967157,33.6942062 28.2571411,33.4330789 28.2571411,33.1108814 L28.2571411,0.967645406 C28.2571411,0.64614987 27.9967157,0.385022492 27.6745182,0.385022492" id="Fill-11" fill="#B1D9FB" mask="url(#mask-6)"></path>
                </g>
                <g id="Group-16" transform="translate(32.289945, 0.358067)">
                    <mask id="mask-8" fill="white">
                        <use xlink:href="#path-7"></use>
                    </mask>
                    <g id="Clip-15"></g>
                    <path d="M23.9385014,0.385022492 L19.8973447,0.385022492 C19.5751472,0.385022492 19.3147217,0.64614987 19.3147217,0.967645406 L19.3147217,23.911055 L5.89193216,0.676333949 C5.78804277,0.495931432 5.59570701,0.385022492 5.38722628,0.385022492 L0.658153306,0.385022492 C0.335955815,0.385022492 0.0748284369,0.64614987 0.0748284369,0.967645406 L0.0748284369,33.1108814 C0.0748284369,33.4330789 0.335955815,33.6942062 0.658153306,33.6942062 L4.69860812,33.6942062 C5.02080561,33.6942062 5.28193299,33.4330789 5.28193299,33.1108814 L5.28193299,10.2524084 L18.7047226,33.4028948 C18.808612,33.5825953 19.0009477,33.6942062 19.2094285,33.6942062 L23.9385014,33.6942062 C24.2606989,33.6942062 24.5211243,33.4330789 24.5211243,33.1108814 L24.5211243,0.967645406 C24.5211243,0.64614987 24.2606989,0.385022492 23.9385014,0.385022492" id="Fill-14" fill="#B1D9FB" mask="url(#mask-8)"></path>
                </g>
            </g>
        </g>
    </g>
</svg>